<?xml version="1.0" standalone="no"?>
<!DOCTYPE svg PUBLIC "-//W3C//DTD SVG 20010904//EN"
 "http://www.w3.org/TR/2001/REC-SVG-20010904/DTD/svg10.dtd">
<svg version="1.0" xmlns="http://www.w3.org/2000/svg"
 width="831.000000pt" height="300.000000pt" viewBox="0 0 831.000000 300.000000"
 preserveAspectRatio="xMidYMid meet">

<g transform="translate(0.000000,300.000000) scale(0.100000,-0.100000)"
fill="#000000" stroke="none">
<path d="M1362 1883 c-30 -26 -33 -71 -6 -97 12 -12 37 -16 107 -16 98 0 108
3 126 37 16 31 14 41 -14 68 -22 23 -32 25 -108 25 -66 0 -89 -4 -105 -17z"/>
<path d="M2180 1586 l0 -286 136 0 c156 0 208 10 257 51 61 50 81 108 82 230
0 98 -2 110 -30 164 -23 46 -42 66 -79 90 -49 30 -52 30 -208 34 l-158 3 0
-286z m279 166 c52 -26 70 -58 77 -133 8 -83 -9 -159 -43 -190 -21 -21 -37
-25 -109 -28 l-84 -3 0 186 0 186 63 0 c39 0 74 -6 96 -18z"/>
<path d="M2755 1857 c-3 -7 -4 -134 -3 -282 l3 -270 218 -3 217 -2 0 50 0 50
-160 0 -161 0 3 73 3 72 143 3 143 3 -3 47 -3 47 -143 3 -143 3 3 57 3 57 153
3 152 3 0 49 0 50 -210 0 c-161 0 -212 -3 -215 -13z"/>
<path d="M3287 1864 c-4 -4 -7 -133 -7 -286 l0 -278 173 1 c106 0 185 5 206
12 85 30 129 154 79 226 -12 19 -32 39 -43 45 -11 6 -22 12 -24 14 -3 1 5 12
16 25 48 52 57 119 23 174 -35 59 -66 67 -250 71 -91 2 -168 0 -173 -4z m293
-104 c27 -14 42 -47 35 -71 -10 -30 -65 -49 -145 -49 l-70 0 0 65 0 65 81 0
c44 0 89 -5 99 -10z m-36 -219 c90 -11 123 -65 71 -116 -22 -23 -32 -25 -120
-25 l-95 0 0 68 c0 38 3 72 7 75 8 9 59 8 137 -2z"/>
<path d="M3858 1864 c-5 -4 -8 -133 -8 -286 l0 -278 60 0 59 0 3 118 3 117 35
-3 c54 -5 75 -24 147 -133 l66 -100 135 3 134 3 23 60 22 60 110 3 111 3 24
-63 24 -63 66 -3 66 -3 -113 283 -113 283 -57 3 c-32 2 -62 -1 -66 -5 -5 -5
-56 -130 -114 -278 -58 -148 -107 -271 -109 -273 -2 -1 -29 38 -60 87 -32 50
-72 102 -89 118 l-32 27 49 26 c64 33 89 76 83 148 -4 60 -27 97 -78 127 -30
17 -56 20 -204 23 -93 2 -173 0 -177 -4z m316 -114 c29 -30 30 -67 2 -94 -23
-24 -32 -26 -116 -26 l-90 0 0 71 0 71 95 -4 c67 -2 99 -7 109 -18z m515 -138
l30 -82 -70 0 c-38 0 -69 3 -69 6 0 4 14 47 32 95 20 54 35 84 39 76 4 -7 21
-50 38 -95z"/>
<path d="M5000 1585 l0 -285 55 0 55 0 0 177 0 177 108 -174 108 -175 62 -3
62 -3 0 286 0 285 -55 0 -55 0 -2 -182 -3 -183 -111 180 -111 180 -56 3 -57 3
0 -286z"/>
<path d="M6192 1818 c-11 -29 -46 -118 -77 -198 -32 -80 -63 -161 -70 -180 -7
-19 -22 -59 -34 -87 l-21 -53 64 0 64 0 23 65 23 66 110 -3 111 -3 24 -62 25
-63 63 0 c35 0 63 3 63 7 0 4 -50 132 -112 285 l-112 278 -62 0 -63 0 -19 -52z
m147 -275 c1 -9 -19 -13 -69 -13 l-69 0 25 68 c52 141 43 136 80 41 18 -46 33
-90 33 -96z"/>
<path d="M6620 1585 l0 -285 55 0 55 0 0 275 c0 151 0 278 0 283 0 4 -25 8
-55 10 l-55 3 0 -286z"/>
<path d="M1372 1630 c-58 -24 -43 -113 21 -125 19 -4 94 -5 166 -3 126 3 134
4 152 27 24 29 24 53 0 82 -18 23 -25 24 -168 26 -81 1 -158 -2 -171 -7z"/>
<path d="M5700 1355 l0 -55 55 0 55 0 0 55 0 55 -55 0 -55 0 0 -55z"/>
<path d="M1364 1362 c-39 -25 -36 -90 5 -111 12 -7 102 -11 233 -11 202 0 216
1 236 20 26 24 28 57 6 88 -15 22 -19 22 -242 22 -125 0 -232 -4 -238 -8z"/>
</g>
</svg>
